<?xml version="1.0" standalone="no"?>
<!DOCTYPE svg PUBLIC "-//W3C//DTD SVG 1.1//EN" "http://www.w3.org/Graphics/SVG/1.1/DTD/svg11.dtd" >
<svg xmlns="http://www.w3.org/2000/svg">
<metadata></metadata>
<defs>
<font id="PicoBlackAlRegular" horiz-adv-x="1126" >
<font-face units-per-em="2048" ascent="1638" descent="-410" />
<missing-glyph horiz-adv-x="407" />
<glyph horiz-adv-x="0" />
<glyph horiz-adv-x="2048" />
<glyph unicode="&#xd;" horiz-adv-x="407" />
<glyph unicode=" "  horiz-adv-x="407" />
<glyph unicode="&#x09;" horiz-adv-x="407" />
<glyph unicode="&#xa0;" horiz-adv-x="407" />
<glyph unicode="!" horiz-adv-x="444" d="M47 174q0 72 51.5 123t122.5 51q72 0 124 -51t52 -123t-51 -123t-123 -51t-124 51t-52 123zM47 651v568q0 72 51.5 123t122.5 51q72 0 124 -51.5t52 -122.5v-568q0 -72 -51 -123t-123 -51t-124 51.5t-52 122.5z" />
<glyph unicode="&#x22;" horiz-adv-x="974" d="M49 1464q0 72 52.5 123t121.5 51q117 0 160 -102q14 -33 27 -233q10 -168 10 -256q0 -35 -25 -35q-12 0 -24 12q-57 53 -164 180q-117 137 -141 189q-16 33 -17 71zM555 1464q0 72 52 123t124 51q115 0 158 -102q14 -33 26 -236q11 -165 11 -253q0 -35 -25 -35 q-10 0 -22 12q-57 53 -164 180q-115 137 -142 189q-18 37 -18 71z" />
<glyph unicode="#" horiz-adv-x="1134" d="M45 289q0 123 117 164v135q-117 41 -117 164q0 57 35 103t90 63q16 55 62.5 89.5t103.5 34.5q123 0 164 -116h135q41 117 164 116q57 0 103 -34.5t63 -89.5q55 -16 90 -62.5t35 -103.5q0 -123 -117 -164v-135q117 -41 117 -164q0 -57 -35 -103.5t-90 -62.5 q-16 -55 -62.5 -90t-103.5 -35q-123 0 -164 117h-135q-41 -117 -164 -117q-57 0 -103.5 35t-62.5 90q-55 16 -90 62t-35 104zM510 463h115v115h-115v-115z" />
<glyph unicode="$" horiz-adv-x="1171" d="M35 174q0 72 51 123t123 51h426q115 0 163 115t163 115q72 0 124 -51.5t52 -123.5q0 -29 -11 -59q-39 -115 -132 -201t-212 -120v-197q0 -72 -51 -123t-123 -51t-123 51t-51 123v174h-223q-72 0 -124 51t-52 123zM35 639q0 31 10 59q43 127 149.5 216.5t237.5 115.5v187 q0 72 51.5 123t122.5 51q72 0 123 -51.5t51 -122.5v-175h181q72 0 124 -51t52 -123t-51.5 -123t-122.5 -51h-426q-115 0 -162 -114.5t-164 -114.5q-72 0 -124 51t-52 123z" />
<glyph unicode="%" horiz-adv-x="1282" d="M29 174q0 63 41 113l874 1042q51 61 133 62q72 0 124 -51t52 -123q0 -61 -41 -111l-872 -1045q-51 -61 -135 -61q-72 0 -124 51t-52 123zM33 1219q0 72 51 123t123 51t124 -51t52 -123t-51 -123.5t-123 -51.5t-124 51.5t-52 123.5zM903 174q0 72 51.5 123t122.5 51 q72 0 124 -51t52 -123t-51 -123t-123 -51t-124 51t-52 123z" />
<glyph unicode="&#x26;" horiz-adv-x="1460" d="M27 434q0 143 88 260q-88 117 -88 260q0 178 127 306.5t305 128.5h321q72 0 123 -52.5t51 -124.5t-51 -123t-123 -51h-321q-35 0 -59.5 -24.5t-24.5 -59.5t24.5 -60.5t59.5 -25.5h80q119 0 161 -106q12 -31 13 -68q0 -72 -51.5 -123t-122.5 -51h-80q-35 0 -59.5 -25.5 t-24.5 -60.5t24.5 -60.5t59.5 -25.5h266q35 0 59.5 25.5t24.5 60.5v258q0 72 51 124t123 52h277q72 0 123 -52t51 -124t-51.5 -123t-122.5 -51h-103v-84q0 -180 -126 -307t-306 -127h-266q-180 0 -306 127t-126 307z" />
<glyph unicode="'" horiz-adv-x="473" d="M51 1464q0 72 51.5 123t122.5 51q117 0 160 -102q14 -33 27 -236q10 -165 10 -253q0 -35 -25 -35q-10 0 -22 12q-57 53 -164 180q-119 139 -141 189q-18 39 -19 71z" />
<glyph unicode="(" horiz-adv-x="1003" d="M25 694q0 287 203.5 491t490.5 204h84q72 0 124 -51.5t52 -123.5t-51 -123t-123 -51h-84q-143 0 -245.5 -101t-102.5 -245q0 -143 101 -244.5t245 -101.5h84q72 0 124 -51t52 -123t-51 -123t-123 -51h-84q-287 0 -491.5 204t-204.5 490z" />
<glyph unicode=")" horiz-adv-x="1038" d="M43 174q0 72 51 123t123 51h84q143 0 244.5 101.5t101.5 244.5t-101.5 244.5t-244.5 101.5h-82q-72 0 -124 51.5t-52 122.5q0 72 52 123.5t124 51.5h82q287 0 490.5 -204t203.5 -491t-203.5 -490.5t-490.5 -203.5h-84q-72 0 -123 51t-51 123z" />
<glyph unicode="*" horiz-adv-x="980" d="M39 332q0 66 43 112q20 23 102 78q-82 55 -100 76q-45 47 -45 113q0 72 50 123t122 51q55 0 104 -33q0 82 47.5 136t126.5 54q80 0 127.5 -54t47.5 -136q45 35 100 35q72 0 125 -52.5t53 -123.5q0 -68 -43 -113q-20 -23 -102 -76q84 -59 100 -76q45 -46 45 -114 q0 -72 -51 -123t-123 -51q-53 0 -102 32q0 -82 -47.5 -136t-126.5 -54q-80 0 -127.5 54.5t-47.5 135.5q-49 -33 -104 -32q-72 0 -123 51t-51 123z" />
<glyph unicode="+" horiz-adv-x="1136" d="M47 514q0 72 51.5 124t122.5 52l172 -2l2 180q0 72 51.5 123t122.5 51q72 0 123 -51t51 -123v-180h172q72 0 123.5 -51t51.5 -123t-51.5 -123t-123.5 -51h-172l-2 -166q0 -72 -51 -123t-123 -51t-123 51t-51 123v166h-172q-72 0 -123 51t-51 123z" />
<glyph unicode="," horiz-adv-x="466" d="M47 -244q0 90 10 256q12 201 27 236q43 100 158 100q72 0 125 -52t53 -122q0 -35 -19 -72q-27 -51 -141 -188q-106 -125 -164 -180q-16 -12 -22 -13q-27 0 -27 35z" />
<glyph unicode="-" d="M49 524q0 72 51.5 123t122.5 51h680q72 0 123 -51t51 -123t-51 -124t-123 -52h-680q-72 0 -123 52.5t-51 123.5z" />
<glyph unicode="." horiz-adv-x="448" d="M49 174q0 72 51.5 123t122.5 51q72 0 124 -51t52 -123t-51 -123t-123 -51t-124 51t-52 123z" />
<glyph unicode="/" horiz-adv-x="1284" d="M31 174q0 63 41 113l872 1042q51 61 135 62q72 0 123 -51t51 -123q0 -61 -41 -111l-874 -1045q-51 -61 -133 -61q-72 0 -123 51t-51 123z" />
<glyph unicode="0" horiz-adv-x="1120" d="M41 520q0 213 152.5 365.5t367.5 152.5t366.5 -152.5t151.5 -365.5q0 -215 -152.5 -367.5t-365.5 -152.5q-215 0 -367.5 152.5t-152.5 367.5zM389 520q0 -70 51.5 -121t120.5 -51q70 0 120 50t50 122t-49 121t-121 49t-122 -50t-50 -120z" />
<glyph unicode="1" horiz-adv-x="864" d="M47 866q0 72 51.5 123t122.5 51h74q215 0 368.5 -152.5t153.5 -367.5v-346q0 -72 -51 -123t-123 -51t-123 51t-51 123v346q0 72 -50 122t-122 50h-74q-72 0 -124 51.5t-52 122.5z" />
<glyph unicode="2" horiz-adv-x="1122" d="M47 176q0 72 51.5 123t122.5 51h334q72 0 122 50.5t50 119.5q0 72 -50 122t-120 50h-334q-72 0 -124 51.5t-52 122.5q0 72 51.5 123t122.5 51h334q215 0 367.5 -152.5t152.5 -367.5q0 -121 -51 -221q51 -55 51 -123q0 -72 -51 -123t-123 -51h-678q-72 0 -124 51t-52 123z " />
<glyph unicode="3" horiz-adv-x="1083" d="M45 174q0 72 52.5 123t123.5 51h199q-47 53 -47 119q0 72 51 123t123 51h170q131 0 225 -94.5t94 -227.5q0 -131 -93 -225t-226 -94h-496q-72 0 -124 51t-52 123zM45 866q0 72 51 123t123 51h643q72 0 124 -51t52 -123t-52 -123t-124 -51h-643q-72 0 -123 51.5t-51 122.5 z" />
<glyph unicode="4" horiz-adv-x="1144" d="M53 793v73q0 72 51.5 123t122.5 51q72 0 123 -51t51 -123v-73q0 -70 51.5 -121t120.5 -51q70 0 120 50t50 122v73q0 72 51.5 123t123.5 51t123 -51t51 -123v-692q0 -72 -51.5 -123t-122.5 -51q-72 0 -123.5 51t-51.5 123v127q-86 -29 -170 -29q-215 0 -367.5 153 t-152.5 368z" />
<glyph unicode="5" horiz-adv-x="1128" d="M51 176q0 72 51.5 123t122.5 51h334q70 0 120 50.5t50 121.5q0 72 -49 121t-121 49h-334q-72 0 -123 51.5t-51 122.5q0 72 51.5 123t122.5 51h678q72 0 123 -51t51 -123t-49 -121q49 -104 49 -223q0 -215 -152.5 -367.5t-365.5 -152.5h-334q-72 0 -123 51t-51 123z" />
<glyph unicode="6" horiz-adv-x="1107" d="M33 520q0 215 151 367l103 102q51 51 125 51q72 0 124 -51t52 -123q0 -80 -103.5 -174t-103.5 -172q0 -70 51 -121t121 -51q72 0 122 51.5t50 120.5q0 23 -15.5 68t-15.5 69q0 72 52.5 123t121.5 51q109 0 164 -108q43 -86 43 -205q0 -215 -152.5 -366.5t-367.5 -151.5 q-217 0 -369.5 151.5t-152.5 368.5z" />
<glyph unicode="7" horiz-adv-x="1103" d="M37 866q0 72 51 123t123 51h680q72 0 124 -51t52 -123q0 -39 -12 -67l-291 -695q-45 -106 -160 -106q-72 0 -124 51t-52 123q0 37 12 68q18 43 191 450h-418q-72 0 -124 52.5t-52 123.5z" />
<glyph unicode="8" horiz-adv-x="1083" d="M45 319q0 133 93 227.5t227 94.5h352q133 0 226 -94.5t93 -227.5q0 -131 -93 -225t-226 -94h-352q-131 0 -225.5 94t-94.5 225zM45 866q0 72 51 123t123 51h643q72 0 124 -51t52 -123t-52 -123t-124 -51h-643q-72 0 -123 51.5t-51 122.5z" />
<glyph unicode="9" horiz-adv-x="1122" d="M41 522q0 215 152.5 366.5t367.5 151.5t367.5 -151.5t152.5 -368.5t-151 -366l-105 -103q-51 -51 -123 -51t-123 51t-51 123q0 80 102.5 174t102.5 172q0 72 -50 122t-122 50q-70 0 -121 -50t-51 -122q0 -23 14.5 -67.5t14.5 -69.5q0 -72 -51.5 -123t-122.5 -51 q-106 0 -160 108q-43 84 -43 205z" />
<glyph unicode=":" horiz-adv-x="423" d="M37 176q0 72 51 123t123 51t124 -51t52 -123t-51 -123t-123 -51t-124 51t-52 123zM37 866q0 72 51 123t123 51t124 -51t52 -123t-51 -123t-123 -51t-124 51.5t-52 122.5z" />
<glyph unicode=";" horiz-adv-x="444" d="M37 -246q0 88 10 256q12 203 27 236q43 100 157 100q72 0 124.5 -51t52.5 -123q0 -35 -19 -72q-27 -51 -141 -188q-106 -127 -164 -180q-12 -12 -23 -13q-25 0 -24 35zM57 866q0 72 51.5 123t122.5 51q72 0 123.5 -51t51.5 -123t-51.5 -123t-123.5 -51t-123 51.5 t-51 122.5z" />
<glyph unicode="&#x3c;" horiz-adv-x="794" d="M43 520q0 76 53 127l361 344q49 47 118 47q72 0 124.5 -51t52.5 -123t-56 -125l-227 -219q76 -72 227 -221q53 -53 54 -125q0 -72 -51.5 -123t-123.5 -51q-70 0 -120 49l-359 346q-53 51 -53 125z" />
<glyph unicode="=" horiz-adv-x="1062" d="M16 174q0 72 51.5 124t122.5 52h680q72 0 124.5 -52t52.5 -124t-51.5 -123t-123.5 -51h-679q-72 0 -124.5 51t-52.5 123zM16 866q0 72 51.5 123t122.5 51h680q72 0 124.5 -51t52.5 -123t-51.5 -123t-123.5 -51h-679q-72 0 -124.5 51.5t-52.5 122.5z" />
<glyph unicode="&#x3e;" horiz-adv-x="772" d="M31 174q0 70 53 125q78 80 231 221l-229 219q-55 53 -55 125t51 123t123 51t121 -47l358 -344q57 -55 57 -127q0 -74 -53 -125l-360 -346q-51 -49 -121 -49q-72 0 -124 51t-52 123z" />
<glyph unicode="?" horiz-adv-x="1103" d="M33 874q0 213 152.5 366t365.5 153q217 0 368.5 -153t151.5 -370q0 -158 -80 -276q-43 -66 -198 -215q-51 -49 -123 -49t-123 51t-51 123q0 82 113.5 184.5t113.5 183.5q0 72 -50 121t-122 49q-70 0 -120 -50t-50 -120q0 -25 14.5 -68.5t14.5 -68.5q0 -72 -51.5 -123 t-122.5 -51q-109 0 -162 109q-41 84 -41 204zM182 174q0 72 51.5 123t122.5 51q72 0 123 -51t51 -123t-51 -123t-123 -51t-123 51t-51 123z" />
<glyph unicode="@" horiz-adv-x="2127" d="M39 520q0 424 300 724t724 300t725 -300t301 -724v-49q0 -203 -131 -328q-119 -113 -283 -112q-172 0 -289 119q-127 129 -126 325v45q0 80 -57.5 137.5t-137.5 57.5t-138.5 -57.5t-58.5 -137.5q0 -117 105 -172q96 -49 96 -155q0 -41 -20 -80q-47 -94 -152 -95 q-43 0 -82 21q-135 72 -215 201t-80 280q0 225 160 384t383 159q225 0 384 -159t159 -384v-45q0 -96 67 -96q68 0 68 92v49q0 281 -197.5 478.5t-478.5 197.5t-479.5 -198.5t-198.5 -477.5t198.5 -477.5t477.5 -198.5h612q72 0 124 -51t52 -123t-51 -123t-123 -51h-612 q-424 0 -725 300t-301 724z" />
<glyph unicode="A" horiz-adv-x="1146" d="M53 520q0 215 152.5 366.5t365.5 151.5q215 0 369 -151.5t154 -366.5v-346q0 -72 -51.5 -123t-122.5 -51h-347q-213 0 -366.5 152.5t-153.5 367.5zM401 520q0 -72 50.5 -122t119.5 -50h172l2 172q0 70 -50 120t-122 50t-122 -50t-50 -120z" />
<glyph unicode="B" horiz-adv-x="1110" d="M35 520v697q0 72 51 123t123 51t123 -51.5t51 -122.5v-179h172q215 0 367.5 -151.5t152.5 -366.5t-151.5 -367.5t-366.5 -152.5t-368.5 152.5t-153.5 367.5zM383 520q0 -70 51 -121t121 -51t120 50.5t50 121.5h2q0 72 -49 121t-121 49h-174v-170z" />
<glyph unicode="C" horiz-adv-x="1089" d="M29 520q0 215 152.5 366.5t367.5 151.5h336q72 0 124 -51t52 -123t-51.5 -123t-122.5 -51h-336q-72 0 -123 -50t-51 -120t51 -121t121 -51h336q72 0 124 -51t52 -123t-51.5 -123t-122.5 -51h-336q-215 0 -368.5 152.5t-153.5 367.5z" />
<glyph unicode="D" horiz-adv-x="1136" d="M47 520q0 215 152.5 366.5t367.5 151.5h170v176q0 72 51.5 123.5t122.5 51.5q72 0 125.5 -51.5t53.5 -123.5v-694q0 -215 -153 -367.5t-368 -152.5t-368.5 152.5t-153.5 367.5zM395 520q0 -70 51.5 -121t120.5 -51q70 0 120 50.5t50 121.5l2 170h-170q-72 0 -123 -50 t-51 -120z" />
<glyph unicode="E" horiz-adv-x="1128" d="M45 520q0 215 152.5 367.5t367.5 152.5q182 0 323.5 -112.5t182.5 -290.5q6 -12 6 -39q0 -72 -51 -123t-123 -51q-129 0 -169 133t-167 133q-72 0 -123 -50t-51 -120t51.5 -121t120.5 -51h342q72 0 124 -51t52 -123t-51 -123t-123 -51h-342q-215 0 -368.5 152.5 t-153.5 367.5z" />
<glyph unicode="F" horiz-adv-x="817" d="M29 174v694q0 215 152.5 368t367.5 153h67q72 0 123.5 -51.5t51.5 -123.5t-51.5 -123t-123.5 -51h-65q-72 0 -123 -51t-51 -121v-176h239q72 0 123.5 -51t51.5 -123t-51.5 -123t-123.5 -51h-237v-170q0 -72 -51.5 -123t-122.5 -51q-74 0 -125 51t-51 123z" />
<glyph unicode="G" horiz-adv-x="1136" d="M47 520q0 215 152.5 367.5t367.5 152.5t369 -152.5t154 -367.5v-350q0 -215 -153 -366.5t-368 -151.5h-168q-72 0 -124 51t-52 123t51.5 123t122.5 51h168q72 0 122 50t50 120v350q0 72 -50 122t-120 50q-72 0 -123 -51t-51 -121q0 -51 45 -114.5t45 -114.5 q0 -72 -51 -123t-123 -51q-117 0 -196 149q-68 125 -68 254z" />
<glyph unicode="H" horiz-adv-x="1120" d="M41 174v1043q0 72 51 123t123 51t123 -51.5t51 -122.5v-203q83 28 166 28h6q215 0 366.5 -152.5t151.5 -367.5v-348q0 -72 -51 -123t-123 -51t-123 51t-51 123v348q0 72 -50 122t-120 50t-121 -51t-51 -121v-348q0 -72 -51 -123t-123 -51t-123 51t-51 123z" />
<glyph unicode="I" horiz-adv-x="444" d="M47 174v565q0 72 51.5 123t122.5 51q72 0 124 -51t52 -123v-565q0 -72 -51 -123t-123 -51t-124 51t-52 123zM47 1217q0 72 51.5 123t122.5 51q72 0 124 -51t52 -123t-51 -123.5t-123 -51.5t-124 51.5t-52 123.5z" />
<glyph unicode="J" horiz-adv-x="919" d="M45 -176q0 72 51 123t123 51h135q72 0 122 50t50 120v569q0 72 51.5 123t122.5 51q72 0 123 -51t51 -123v-569q0 -213 -152.5 -365.5t-367.5 -152.5h-135q-72 0 -123 51t-51 123zM526 1214q0 72 51.5 123.5t122.5 51.5q72 0 123 -51.5t51 -123.5t-51 -123t-123 -51 t-123 51.5t-51 122.5z" />
<glyph unicode="K" horiz-adv-x="1122" d="M45 174v1040q0 72 51 123.5t123 51.5t123 -51.5t51 -123.5v-522h162q109 0 147 90q25 82 52 164q39 90 147 90q72 0 124 -51t52 -123q0 -229 -174 -385l141 -201q33 -47 33 -100q0 -72 -51 -123t-123 -51q-90 0 -143 76l-187 266h-178v-170q0 -72 -51 -123t-123 -51 t-124 51t-52 123z" />
<glyph unicode="L" horiz-adv-x="450" d="M51 174v1043q0 72 51.5 123t122.5 51q72 0 123 -51.5t51 -122.5v-1043q0 -72 -51 -123t-123 -51t-123 51t-51 123z" />
<glyph unicode="M" horiz-adv-x="1826" d="M47 176v694q0 215 152.5 367t367.5 152q197 0 344 -132q150 131 346 132q215 0 369 -152t154 -367v-696q0 -72 -51.5 -123t-122.5 -51q-72 0 -123 51t-51 123v696q0 70 -50.5 120t-121.5 50q-70 0 -120 -49t-50 -121v-694q0 -72 -52.5 -124t-124.5 -52t-123 51t-51 123 v696q0 72 -49 121t-121 49t-122 -50t-50 -120v-694q0 -72 -51 -123t-123 -51t-124 51t-52 123z" />
<glyph unicode="N" horiz-adv-x="1136" d="M49 174v346q0 215 152.5 367.5t367.5 152.5t366.5 -152.5t151.5 -367.5v-346q0 -72 -51 -123t-123 -51t-123 51t-51 123v346q0 72 -50 122t-120 50t-121 -50t-51 -122v-346q0 -72 -51 -123t-123 -51t-123 51t-51 123z" />
<glyph unicode="O" horiz-adv-x="1120" d="M41 520q0 215 152.5 366.5t367.5 151.5t366.5 -151.5t151.5 -366.5t-151.5 -367.5t-366.5 -152.5t-367.5 152.5t-152.5 367.5zM389 520q0 -70 51.5 -121t120.5 -51q70 0 120 50t50 122t-49 121t-121 49t-122 -50t-50 -120z" />
<glyph unicode="P" horiz-adv-x="1093" d="M27 174v694q0 215 152.5 368t367.5 153t367.5 -153t152.5 -368q0 -213 -151.5 -365.5t-366.5 -152.5h-172v-176q0 -72 -51.5 -123t-122.5 -51q-72 0 -124 51t-52 123zM375 698h172q72 0 121 50.5t49 119.5h2q0 72 -50.5 122t-119.5 50q-72 0 -123 -51t-51 -121v-170z" />
<glyph unicode="Q" horiz-adv-x="1134" d="M47 868q0 215 152.5 368t367.5 153t367.5 -153t152.5 -368v-694q0 -72 -52 -123t-124 -51t-123 51t-51 123v176h-170q-215 0 -367.5 152.5t-152.5 365.5zM395 868q0 -70 50.5 -120t121.5 -50h170v170q0 72 -50 122t-120 50t-121 -50t-51 -122z" />
<glyph unicode="R" horiz-adv-x="1001" d="M25 174v346q0 215 152.5 367.5t367.5 152.5h256q72 0 124 -51t52 -123t-51.5 -123t-122.5 -51h-256q-70 0 -121 -50t-51 -122v-346q0 -72 -51.5 -123t-122.5 -51q-72 0 -124 51t-52 123z" />
<glyph unicode="S" horiz-adv-x="1128" d="M41 174q0 72 51 123t123 51h373q113 0 160 113.5t163 113.5q72 0 123 -51t51 -123q0 -31 -10 -59q-53 -152 -189 -247t-298 -95h-373q-72 0 -123 51t-51 123zM41 639q0 29 10 59q51 152 189.5 247t300.5 95h372q72 0 123 -51t51 -123t-51 -123t-123 -51h-372 q-82 0 -127 -59q-35 -53 -70 -109q-47 -59 -129 -59q-72 0 -123 51t-51 123z" />
<glyph unicode="T" horiz-adv-x="821" d="M41 520v694q0 72 52 123.5t124 51.5t123 -51.5t51 -123.5v-174h215q72 0 123 -51t51 -123t-51 -123t-123 -51h-217v-172q0 -70 51.5 -121t120.5 -51h45q72 0 123 -51t51 -123t-51 -123t-123 -51h-43q-215 0 -368.5 152.5t-153.5 367.5z" />
<glyph unicode="U" horiz-adv-x="1142" d="M51 520v346q0 72 51.5 123t122.5 51q72 0 123 -51t51 -123v-346q0 -70 51.5 -121t120.5 -51q70 0 120 50.5t50 121.5v344q0 72 51.5 123t122.5 51q72 0 124.5 -51t52.5 -123v-344q0 -215 -153 -367.5t-368 -152.5t-367.5 152.5t-152.5 367.5z" />
<glyph unicode="V" horiz-adv-x="1105" d="M33 868q0 72 52 123t124 51q109 0 156 -96l186 -381l190 379q49 96 156 96q72 0 124 -51t52 -123q0 -41 -18 -78l-346 -692q-47 -96 -156 -96t-156 96l-344 695q-20 41 -20 77z" />
<glyph unicode="W" horiz-adv-x="1832" d="M51 520v346q0 72 51.5 123t122.5 51q72 0 123 -51t51 -123v-346q0 -70 51.5 -121t120.5 -51q70 0 120 50.5t50 121.5v344q0 72 52.5 124t124.5 52t123 -51t51 -123v-346q0 -72 50 -122t120 -50q72 0 122 51.5t50 120.5v346q0 72 51 123t123 51t123 -51t51 -123v-346 q0 -215 -152.5 -367.5t-367.5 -152.5q-197 0 -347 133q-145 -133 -344 -133q-215 0 -367.5 152.5t-152.5 367.5z" />
<glyph unicode="X" horiz-adv-x="1122" d="M43 174q0 72 51 123l221 223l-221 225q-51 51 -51 123t51 123t123 51q74 0 125 -51l219 -223l221 223q51 51 123 51t123 -51t51 -123q0 -74 -49 -123l-223 -225l223 -223q49 -49 49 -123q0 -72 -51 -123t-123 -51t-123 51l-221 223l-219 -223q-51 -51 -125 -51 q-72 0 -123 51t-51 123z" />
<glyph unicode="Y" horiz-adv-x="1118" d="M39 838v376q0 72 51 123.5t123 51.5t123 -51.5t51 -123.5v-376q0 -70 51 -121t121 -51t120 50t50 122v376q0 72 51 123.5t123 51.5t124 -51.5t52 -123.5v-376q0 -164 -94 -299.5t-250 -190.5v-174q0 -72 -51 -123t-123 -51t-123 51t-51 123v174q-156 55 -252 190.5 t-96 299.5z" />
<glyph unicode="Z" horiz-adv-x="1138" d="M41 174q0 72 53 125q131 131 402 393h-281q-72 0 -123 51.5t-51 122.5q0 72 51 123t123 51h709q72 0 123 -51t51 -123q0 -74 -54 -125l-401 -393h281q72 0 123 -51t51 -123t-51.5 -123t-122.5 -51h-709q-72 0 -123 51t-51 123z" />
<glyph unicode="[" horiz-adv-x="894" d="M37 524v344q0 215 152.5 368t367.5 153h125q72 0 124 -51.5t52 -123.5t-51 -123t-123 -51h-125q-70 0 -121 -50t-51 -122v-344q0 -72 -51 -124t-123 -52t-124 52.5t-52 123.5z" />
<glyph unicode="\" horiz-adv-x="1259" d="M18 1219q0 72 51.5 122t123.5 50q84 0 135 -62l872 -1042q41 -50 41 -113q0 -72 -51 -123t-123 -51q-82 0 -133 61l-875 1045q-41 49 -41 113z" />
<glyph unicode="]" horiz-adv-x="921" d="M51 174q0 72 51.5 123t122.5 51h125q72 0 122 51.5t50 120.5v346q0 72 51.5 123t122.5 51q72 0 123 -51t51 -123v-346q0 -215 -152.5 -367.5t-367.5 -152.5h-125q-72 0 -123 51t-51 123z" />
<glyph unicode="^" horiz-adv-x="1280" d="M35 346q0 72 51 123t123 51h201q43 86 129 254q51 94 155 94h375q72 0 124 -51t52 -123t-51 -123t-123 -51h-268l-129 -254q-47 -94 -156 -94h-307q-72 0 -124 51t-52 123z" />
<glyph unicode="_" d="M49 172q0 72 51.5 124t122.5 52h680q72 0 123 -52t51 -124t-51 -123t-123 -51h-680q-72 0 -123 51t-51 123z" />
<glyph unicode="`" horiz-adv-x="471" d="M49 1214q0 72 52.5 123.5t121.5 51.5q117 0 160 -103q14 -35 29 -235q10 -170 10 -254q0 -35 -25 -35q-8 0 -24 12q-55 51 -164 180q-117 139 -141 189q-18 37 -19 71z" />
<glyph unicode="a" horiz-adv-x="1146" d="M53 520q0 215 152.5 366.5t365.5 151.5q215 0 369 -151.5t154 -366.5v-346q0 -72 -51.5 -123t-122.5 -51h-347q-213 0 -366.5 152.5t-153.5 367.5zM401 520q0 -72 50.5 -122t119.5 -50h172l2 172q0 70 -50 120t-122 50t-122 -50t-50 -120z" />
<glyph unicode="b" horiz-adv-x="1110" d="M35 520v697q0 72 51 123t123 51t123 -51.5t51 -122.5v-179h172q215 0 367.5 -151.5t152.5 -366.5t-151.5 -367.5t-366.5 -152.5t-368.5 152.5t-153.5 367.5zM383 520q0 -70 51 -121t121 -51t120 50.5t50 121.5h2q0 72 -49 121t-121 49h-174v-170z" />
<glyph unicode="c" horiz-adv-x="1089" d="M29 520q0 215 152.5 366.5t367.5 151.5h336q72 0 124 -51t52 -123t-51.5 -123t-122.5 -51h-336q-72 0 -123 -50t-51 -120t51 -121t121 -51h336q72 0 124 -51t52 -123t-51.5 -123t-122.5 -51h-336q-215 0 -368.5 152.5t-153.5 367.5z" />
<glyph unicode="d" horiz-adv-x="1136" d="M47 520q0 215 152.5 366.5t367.5 151.5h170v176q0 72 51.5 123.5t122.5 51.5q72 0 125.5 -51.5t53.5 -123.5v-694q0 -215 -153 -367.5t-368 -152.5t-368.5 152.5t-153.5 367.5zM395 520q0 -70 51.5 -121t120.5 -51q70 0 120 50.5t50 121.5l2 170h-170q-72 0 -123 -50 t-51 -120z" />
<glyph unicode="e" horiz-adv-x="1128" d="M45 520q0 215 152.5 367.5t367.5 152.5q182 0 323.5 -112.5t182.5 -290.5q6 -12 6 -39q0 -72 -51 -123t-123 -51q-129 0 -169 133t-167 133q-72 0 -123 -50t-51 -120t51.5 -121t120.5 -51h342q72 0 124 -51t52 -123t-51 -123t-123 -51h-342q-215 0 -368.5 152.5 t-153.5 367.5z" />
<glyph unicode="f" horiz-adv-x="817" d="M29 174v694q0 215 152.5 368t367.5 153h67q72 0 123.5 -51.5t51.5 -123.5t-51.5 -123t-123.5 -51h-65q-72 0 -123 -51t-51 -121v-176h239q72 0 123.5 -51t51.5 -123t-51.5 -123t-123.5 -51h-237v-170q0 -72 -51.5 -123t-122.5 -51q-74 0 -125 51t-51 123z" />
<glyph unicode="g" horiz-adv-x="1136" d="M47 520q0 215 152.5 367.5t367.5 152.5t369 -152.5t154 -367.5v-350q0 -215 -153 -366.5t-368 -151.5h-168q-72 0 -124 51t-52 123t51.5 123t122.5 51h168q72 0 122 50t50 120v350q0 72 -50 122t-120 50q-72 0 -123 -51t-51 -121q0 -51 45 -114.5t45 -114.5 q0 -72 -51 -123t-123 -51q-117 0 -196 149q-68 125 -68 254z" />
<glyph unicode="h" horiz-adv-x="1138" d="M49 174v1043q0 72 51.5 123t122.5 51q72 0 123 -51.5t51 -122.5v-203q83 28 166 28h6q215 0 368 -152.5t153 -367.5v-348q0 -72 -51.5 -123t-123.5 -51t-123 51t-51 123v348q0 72 -50 122t-120 50t-121 -51t-51 -121v-348q0 -72 -51 -123t-123 -51t-124 51t-52 123z" />
<glyph unicode="i" horiz-adv-x="444" d="M47 174v565q0 72 51.5 123t122.5 51q72 0 124 -51t52 -123v-565q0 -72 -51 -123t-123 -51t-124 51t-52 123zM47 1217q0 72 51.5 123t122.5 51q72 0 124 -51t52 -123t-51 -123.5t-123 -51.5t-124 51.5t-52 123.5z" />
<glyph unicode="j" horiz-adv-x="919" d="M45 -176q0 72 51 123t123 51h135q72 0 122 50t50 120v569q0 72 51.5 123t122.5 51q72 0 123 -51t51 -123v-569q0 -213 -152.5 -365.5t-367.5 -152.5h-135q-72 0 -123 51t-51 123zM526 1214q0 72 51.5 123.5t122.5 51.5q72 0 123 -51.5t51 -123.5t-51 -123t-123 -51 t-123 51.5t-51 122.5z" />
<glyph unicode="k" horiz-adv-x="1124" d="M47 174v1040q0 72 51.5 123.5t122.5 51.5q72 0 123 -51.5t51 -123.5v-522h162q109 0 148 90q25 82 51 164q39 90 147 90q72 0 123 -51t51 -123q0 -229 -172 -385l142 -201q30 -43 30 -100q0 -72 -51 -123t-123 -51q-90 0 -143 76l-187 266h-178v-170q0 -72 -51 -123 t-123 -51t-123 51t-51 123z" />
<glyph unicode="l" horiz-adv-x="450" d="M51 174v1043q0 72 51.5 123t122.5 51q72 0 123 -51.5t51 -122.5v-1043q0 -72 -51 -123t-123 -51t-123 51t-51 123z" />
<glyph unicode="m" horiz-adv-x="1826" d="M47 176v344q0 215 152.5 367.5t367.5 152.5q197 0 346 -133q145 133 344 133q215 0 369 -152.5t154 -367.5v-346q0 -72 -51.5 -123t-122.5 -51q-72 0 -123 51t-51 123v346q0 72 -50.5 122t-121.5 50q-70 0 -120 -50t-50 -122v-344q0 -72 -52.5 -124t-124.5 -52t-123 51 t-51 123v346q0 72 -50 122t-120 50t-121 -50t-51 -122v-344q0 -72 -51 -123t-123 -51t-124 51t-52 123z" />
<glyph unicode="n" horiz-adv-x="1136" d="M49 174v346q0 215 152.5 367.5t367.5 152.5t366.5 -152.5t151.5 -367.5v-346q0 -72 -51 -123t-123 -51t-123 51t-51 123v346q0 72 -50 122t-120 50t-121 -50t-51 -122v-346q0 -72 -51 -123t-123 -51t-123 51t-51 123z" />
<glyph unicode="o" horiz-adv-x="1120" d="M41 520q0 215 152.5 366.5t367.5 151.5t366.5 -151.5t151.5 -366.5t-151.5 -367.5t-366.5 -152.5t-367.5 152.5t-152.5 367.5zM389 520q0 -70 51.5 -121t120.5 -51q70 0 120 50t50 122t-49 121t-121 49t-122 -50t-50 -120z" />
<glyph unicode="p" horiz-adv-x="1120" d="M41 -174v694q0 215 152.5 367.5t367.5 152.5t366.5 -152.5t151.5 -367.5t-151.5 -366.5t-366.5 -151.5h-172v-176q0 -72 -51 -123t-123 -51t-123 51t-51 123zM389 350h172q72 0 121 50t49 120q0 72 -50 122t-120 50t-121 -50t-51 -122v-170z" />
<glyph unicode="q" horiz-adv-x="1136" d="M47 520q0 215 152.5 367.5t367.5 152.5t369 -152.5t154 -367.5v-694q0 -72 -52.5 -123t-124.5 -51t-123 51t-51 123v176h-170q-215 0 -368.5 151.5t-153.5 366.5zM395 520q0 -70 50.5 -120t121.5 -50h170l2 170q0 70 -50 121t-120 51q-72 0 -123 -51t-51 -121z" />
<glyph unicode="r" horiz-adv-x="1001" d="M25 174v346q0 215 152.5 367.5t367.5 152.5h256q72 0 124 -51t52 -123t-51.5 -123t-122.5 -51h-256q-70 0 -121 -50t-51 -122v-346q0 -72 -51.5 -123t-122.5 -51q-72 0 -124 51t-52 123z" />
<glyph unicode="s" horiz-adv-x="1128" d="M41 174q0 72 51 123t123 51h373q113 0 160 113.5t163 113.5q72 0 123 -51t51 -123q0 -31 -10 -59q-53 -152 -189 -247t-298 -95h-373q-72 0 -123 51t-51 123zM41 639q0 29 10 59q51 152 189.5 247t300.5 95h372q72 0 123 -51t51 -123t-51 -123t-123 -51h-372 q-82 0 -127 -59q-35 -53 -70 -109q-47 -59 -129 -59q-72 0 -123 51t-51 123z" />
<glyph unicode="t" horiz-adv-x="821" d="M41 520v694q0 72 52 123.5t124 51.5t123 -51.5t51 -123.5v-174h215q72 0 123 -51t51 -123t-51 -123t-123 -51h-217v-172q0 -70 51.5 -121t120.5 -51h45q72 0 123 -51t51 -123t-51 -123t-123 -51h-43q-215 0 -368.5 152.5t-153.5 367.5z" />
<glyph unicode="u" horiz-adv-x="1142" d="M51 520v346q0 72 51.5 123t122.5 51q72 0 123 -51t51 -123v-346q0 -70 51.5 -121t120.5 -51q70 0 120 50.5t50 121.5v344q0 72 51.5 123t122.5 51q72 0 124.5 -51t52.5 -123v-344q0 -215 -153 -367.5t-368 -152.5t-367.5 152.5t-152.5 367.5z" />
<glyph unicode="v" horiz-adv-x="1105" d="M33 868q0 72 52 123t124 51q109 0 156 -96l186 -381l190 379q49 96 156 96q72 0 124 -51t52 -123q0 -41 -18 -78l-346 -692q-47 -96 -156 -96t-156 96l-344 695q-20 41 -20 77z" />
<glyph unicode="w" horiz-adv-x="1832" d="M51 520v346q0 72 51.5 123t122.5 51q72 0 123 -51t51 -123v-346q0 -70 51.5 -121t120.5 -51q70 0 120 50.5t50 121.5v344q0 72 52.5 124t124.5 52t123 -51t51 -123v-346q0 -72 50 -122t120 -50q72 0 122 51.5t50 120.5v346q0 72 51 123t123 51t123 -51t51 -123v-346 q0 -215 -152.5 -367.5t-367.5 -152.5q-197 0 -347 133q-145 -133 -344 -133q-215 0 -367.5 152.5t-152.5 367.5z" />
<glyph unicode="x" horiz-adv-x="1122" d="M43 174q0 72 51 123l221 223l-221 225q-51 51 -51 123t51 123t123 51q74 0 125 -51l219 -223l221 223q51 51 123 51t123 -51t51 -123q0 -74 -49 -123l-223 -225l223 -223q49 -49 49 -123q0 -72 -51 -123t-123 -51t-123 51l-221 223l-219 -223q-51 -51 -125 -51 q-72 0 -123 51t-51 123z" />
<glyph unicode="y" horiz-adv-x="1138" d="M49 489v377q0 72 51.5 123t122.5 51q72 0 123 -51t51 -123v-377q0 -70 51.5 -121t120.5 -51q70 0 120 50.5t50 121.5v377q0 72 51.5 123t122.5 51q72 0 124.5 -51t52.5 -123v-377q0 -164 -94.5 -299t-250.5 -190v-174q0 -72 -51 -123t-123 -51t-123 51t-51 123v174 q-156 55 -252 190.5t-96 298.5z" />
<glyph unicode="z" horiz-adv-x="1138" d="M41 174q0 72 53 125q131 131 402 393h-281q-72 0 -123 51.5t-51 122.5q0 72 51 123t123 51h709q72 0 123 -51t51 -123q0 -74 -54 -125l-401 -393h281q72 0 123 -51t51 -123t-51.5 -123t-122.5 -51h-709q-72 0 -123 51t-51 123z" />
<glyph unicode="{" horiz-adv-x="442" d="M47 694q0 72 51.5 123t122.5 51q72 0 123 -51t51 -123t-51 -123t-123 -51t-123 51.5t-51 122.5z" />
<glyph unicode="|" horiz-adv-x="450" d="M51 174v1043q0 72 51.5 123t122.5 51q72 0 123 -51.5t51 -122.5v-1043q0 -72 -51 -123t-123 -51t-123 51t-51 123z" />
<glyph unicode="}" horiz-adv-x="442" d="M47 694q0 72 51.5 123t122.5 51q72 0 123 -51t51 -123t-51 -123t-123 -51t-123 51.5t-51 122.5z" />
<glyph unicode="~" horiz-adv-x="1185" d="M29 1249q0 68 47 119l200 215q51 55 127 55q41 0 84 -22l265 -148q94 106 100 111q63 59 131 59q72 0 123 -51t51 -123q0 -63 -45 -114l-192 -217q-53 -59 -129 -60q-45 0 -86 23l-267 149q-4 -4 -108 -115q-51 -55 -127 -55q-72 0 -123 51.5t-51 122.5z" />
<glyph unicode="&#xa1;" horiz-adv-x="444" d="M47 174v567q0 72 51.5 123t122.5 51q72 0 124 -51t52 -123v-567q0 -72 -51 -123t-123 -51t-124 51t-52 123zM47 1219q0 72 51.5 123t122.5 51q72 0 124 -51t52 -123t-51 -123.5t-123 -51.5t-124 51.5t-52 123.5z" />
<glyph unicode="&#xa8;" d="M49 524q0 72 51.5 123t122.5 51h680q72 0 123 -51t51 -123t-51 -124t-123 -52h-680q-72 0 -123 52.5t-51 123.5z" />
<glyph unicode="&#xad;" d="M49 524q0 72 51.5 123t122.5 51h680q72 0 123 -51t51 -123t-51 -124t-123 -52h-680q-72 0 -123 52.5t-51 123.5z" />
<glyph unicode="&#xaf;" d="M49 524q0 72 51.5 123t122.5 51h680q72 0 123 -51t51 -123t-51 -124t-123 -52h-680q-72 0 -123 52.5t-51 123.5z" />
<glyph unicode="&#xb0;" horiz-adv-x="1120" d="M41 520q0 215 152.5 366.5t367.5 151.5t366.5 -151.5t151.5 -366.5t-151.5 -367.5t-366.5 -152.5t-367.5 152.5t-152.5 367.5zM389 520q0 -70 51.5 -121t120.5 -51q70 0 120 50t50 122t-49 121t-121 49t-122 -50t-50 -120z" />
<glyph unicode="&#xb4;" horiz-adv-x="471" d="M49 797q0 84 10 254q14 201 29 235q43 102 160 103q72 0 123 -51.5t51 -123.5q0 -35 -19 -71q-25 -49 -141 -189q-109 -129 -164 -180q-16 -12 -24 -12q-25 0 -25 35z" />
<glyph unicode="&#xb7;" horiz-adv-x="448" d="M49 530q0 72 51.5 123.5t122.5 51.5q72 0 124 -51.5t52 -123.5t-51 -123t-123 -51t-124 51.5t-52 122.5z" />
<glyph unicode="&#xbf;" horiz-adv-x="1103" d="M33 522q0 158 80 277q43 66 198 215q51 49 123 49t123 -51t51 -123q0 -82 -113.5 -184.5t-113.5 -184.5q0 -72 50 -121t122 -49q70 0 120 50.5t50 119.5q0 25 -14.5 69t-14.5 68q0 72 51.5 123t122.5 51q109 0 162 -108q41 -84 41 -205q0 -213 -152.5 -365.5 t-365.5 -152.5q-217 0 -368.5 152.5t-151.5 369.5zM573 1219q0 72 51.5 123t123.5 51t123 -51t51 -123t-51.5 -123.5t-122.5 -51.5q-72 0 -123.5 51.5t-51.5 123.5z" />
<glyph unicode="&#xf7;" d="M49 582q0 72 51.5 123t122.5 51h680q72 0 123 -51t51 -123t-51 -124t-123 -52h-680q-72 0 -123 52t-51 124zM377 176q0 72 51 123t123 51t124 -51t52 -123t-51 -123t-123 -51t-124 51t-52 123zM377 971q0 72 51 123t123 51t124 -51t52 -123t-51 -123t-123 -51t-124 51 t-52 123z" />
<glyph unicode="&#x2c6;" horiz-adv-x="1134" d="M51 508q0 70 47 119l344 360q51 53 127 53q74 0 125 -53l346 -358q50 -51 50 -121q0 -72 -51.5 -123t-123.5 -51t-124 53l-222 227l-219 -227q-53 -55 -125 -55t-123 52t-51 124z" />
<glyph unicode="&#x2dc;" horiz-adv-x="1185" d="M29 1249q0 68 47 119l200 215q51 55 127 55q41 0 84 -22l265 -148q94 106 100 111q63 59 131 59q72 0 123 -51t51 -123q0 -63 -45 -114l-192 -217q-53 -59 -129 -60q-45 0 -86 23l-267 149q-4 -4 -108 -115q-51 -55 -127 -55q-72 0 -123 51.5t-51 122.5z" />
<glyph unicode="&#x2000;" horiz-adv-x="819" />
<glyph unicode="&#x2001;" horiz-adv-x="1638" />
<glyph unicode="&#x2002;" horiz-adv-x="819" />
<glyph unicode="&#x2003;" horiz-adv-x="1638" />
<glyph unicode="&#x2004;" horiz-adv-x="546" />
<glyph unicode="&#x2005;" horiz-adv-x="409" />
<glyph unicode="&#x2006;" horiz-adv-x="273" />
<glyph unicode="&#x2007;" horiz-adv-x="273" />
<glyph unicode="&#x2008;" horiz-adv-x="204" />
<glyph unicode="&#x2009;" horiz-adv-x="327" />
<glyph unicode="&#x200a;" horiz-adv-x="91" />
<glyph unicode="&#x2010;" d="M49 524q0 72 51.5 123t122.5 51h680q72 0 123 -51t51 -123t-51 -124t-123 -52h-680q-72 0 -123 52.5t-51 123.5z" />
<glyph unicode="&#x2011;" d="M49 524q0 72 51.5 123t122.5 51h680q72 0 123 -51t51 -123t-51 -124t-123 -52h-680q-72 0 -123 52.5t-51 123.5z" />
<glyph unicode="&#x2012;" d="M49 524q0 72 51.5 123t122.5 51h680q72 0 123 -51t51 -123t-51 -124t-123 -52h-680q-72 0 -123 52.5t-51 123.5z" />
<glyph unicode="&#x2013;" d="M49 524q0 72 51.5 123t122.5 51h680q72 0 123 -51t51 -123t-51 -124t-123 -52h-680q-72 0 -123 52.5t-51 123.5z" />
<glyph unicode="&#x2014;" d="M49 524q0 72 51.5 123t122.5 51h680q72 0 123 -51t51 -123t-51 -124t-123 -52h-680q-72 0 -123 52.5t-51 123.5z" />
<glyph unicode="&#x2022;" horiz-adv-x="1120" d="M41 520q0 215 152.5 366.5t367.5 151.5t366.5 -151.5t151.5 -366.5t-151.5 -367.5t-366.5 -152.5t-367.5 152.5t-152.5 367.5z" />
<glyph unicode="&#x2026;" d="M49 172q0 72 51.5 124t122.5 52h680q72 0 123 -52t51 -124t-51 -123t-123 -51h-680q-72 0 -123 51t-51 123z" />
<glyph unicode="&#x202f;" horiz-adv-x="327" />
<glyph unicode="&#x2039;" horiz-adv-x="794" d="M43 520q0 76 53 127l361 344q49 47 118 47q72 0 124.5 -51t52.5 -123t-56 -125l-227 -219q76 -74 227 -221q53 -53 54 -125q0 -72 -51.5 -123t-123.5 -51q-70 0 -120 49l-359 346q-53 51 -53 125z" />
<glyph unicode="&#x203a;" horiz-adv-x="772" d="M31 174q0 70 53 125q78 80 231 221l-229 219q-55 53 -55 125t51 123t123 51t121 -47l358 -344q57 -55 57 -127q0 -74 -53 -125l-360 -346q-51 -49 -121 -49q-72 0 -124 51t-52 123z" />
<glyph unicode="&#x205f;" horiz-adv-x="409" />
<glyph unicode="&#xe000;" horiz-adv-x="1044" d="M0 0v1044h1044v-1044h-1044z" />
</font>
</defs>
</svg>
